<svg xmlns="http://www.w3.org/2000/svg" xmlns:xlink="http://www.w3.org/1999/xlink" width="500" zoomAndPan="magnify" viewBox="0 0 375 374.999991" height="500" preserveAspectRatio="xMidYMid meet" version="1.0"><defs><g/><clipPath id="5e072a842b"><path d="M 127.074219 170 L 140 170 L 140 186 L 127.074219 186 Z M 127.074219 170 " clip-rule="nonzero"/></clipPath><clipPath id="7da25d2bbf"><path d="M 243 170 L 247.824219 170 L 247.824219 183 L 243 183 Z M 243 170 " clip-rule="nonzero"/></clipPath></defs><g clip-path="url(#5e072a842b)"><g fill="#041227" fill-opacity="1"><g transform="translate(127.108122, 182.651488)"><g><path d="M 12.421875 -5.828125 C 12.421875 -4.285156 12.039062 -3 11.28125 -1.96875 C 10.519531 -0.945312 9.460938 -0.300781 8.109375 -0.03125 C 8.296875 0.507812 8.554688 0.898438 8.890625 1.140625 C 9.234375 1.378906 9.707031 1.5 10.3125 1.5 C 10.632812 1.5 10.960938 1.472656 11.296875 1.421875 L 11.28125 3.078125 C 10.59375 3.234375 9.925781 3.3125 9.28125 3.3125 C 8.382812 3.3125 7.640625 3.0625 7.046875 2.5625 C 6.460938 2.0625 5.992188 1.234375 5.640625 0.078125 C 4.078125 -0.0664062 2.859375 -0.660156 1.984375 -1.703125 C 1.117188 -2.742188 0.6875 -4.117188 0.6875 -5.828125 C 0.6875 -7.679688 1.203125 -9.128906 2.234375 -10.171875 C 3.273438 -11.210938 4.71875 -11.734375 6.5625 -11.734375 C 8.394531 -11.734375 9.828125 -11.207031 10.859375 -10.15625 C 11.898438 -9.101562 12.421875 -7.660156 12.421875 -5.828125 Z M 9.953125 -5.828125 C 9.953125 -7.078125 9.65625 -8.054688 9.0625 -8.765625 C 8.46875 -9.472656 7.632812 -9.828125 6.5625 -9.828125 C 5.46875 -9.828125 4.625 -9.472656 4.03125 -8.765625 C 3.4375 -8.066406 3.140625 -7.085938 3.140625 -5.828125 C 3.140625 -4.554688 3.441406 -3.554688 4.046875 -2.828125 C 4.648438 -2.097656 5.484375 -1.734375 6.546875 -1.734375 C 7.628906 -1.734375 8.46875 -2.085938 9.0625 -2.796875 C 9.65625 -3.503906 9.953125 -4.515625 9.953125 -5.828125 Z M 9.953125 -5.828125 "/></g></g></g></g><g fill="#041227" fill-opacity="1"><g transform="translate(140.00315, 182.651488)"><g><path d="M 5.96875 0.15625 C 4.363281 0.15625 3.132812 -0.226562 2.28125 -1 C 1.4375 -1.78125 1.015625 -2.890625 1.015625 -4.328125 L 1.015625 -11.5625 L 3.453125 -11.5625 L 3.453125 -4.515625 C 3.453125 -3.609375 3.671875 -2.914062 4.109375 -2.4375 C 4.546875 -1.96875 5.1875 -1.734375 6.03125 -1.734375 C 6.894531 -1.734375 7.5625 -1.976562 8.03125 -2.46875 C 8.5 -2.96875 8.734375 -3.675781 8.734375 -4.59375 L 8.734375 -11.5625 L 11.171875 -11.5625 L 11.171875 -4.453125 C 11.171875 -2.984375 10.710938 -1.847656 9.796875 -1.046875 C 8.890625 -0.242188 7.613281 0.15625 5.96875 0.15625 Z M 5.96875 0.15625 "/></g></g></g><g fill="#041227" fill-opacity="1"><g transform="translate(151.958583, 182.651488)"><g><path d="M 9.34375 0 L 8.3125 -2.953125 L 3.890625 -2.953125 L 2.859375 0 L 0.421875 0 L 4.65625 -11.5625 L 7.53125 -11.5625 L 11.75 0 Z M 6.09375 -9.78125 L 6.046875 -9.59375 C 5.992188 -9.394531 5.925781 -9.171875 5.84375 -8.921875 C 5.769531 -8.671875 5.296875 -7.285156 4.421875 -4.765625 L 7.765625 -4.765625 L 6.625 -8.09375 L 6.265625 -9.203125 Z M 6.09375 -9.78125 "/></g></g></g><g fill="#041227" fill-opacity="1"><g transform="translate(163.914016, 182.651488)"><g><path d="M 8.203125 0 L 3.140625 -8.90625 C 3.242188 -8.039062 3.296875 -7.34375 3.296875 -6.8125 L 3.296875 0 L 1.125 0 L 1.125 -11.5625 L 3.90625 -11.5625 L 9.046875 -2.578125 C 8.953125 -3.410156 8.90625 -4.164062 8.90625 -4.84375 L 8.90625 -11.5625 L 11.0625 -11.5625 L 11.0625 0 Z M 8.203125 0 "/></g></g></g><g fill="#041227" fill-opacity="1"><g transform="translate(175.869449, 182.651488)"><g><path d="M 6.375 -9.6875 L 6.375 0 L 3.9375 0 L 3.9375 -9.6875 L 0.1875 -9.6875 L 0.1875 -11.5625 L 10.140625 -11.5625 L 10.140625 -9.6875 Z M 6.375 -9.6875 "/></g></g></g><g fill="#041227" fill-opacity="1"><g transform="translate(185.640635, 182.651488)"><g><path d="M 12.421875 -5.828125 C 12.421875 -4.628906 12.179688 -3.570312 11.703125 -2.65625 C 11.234375 -1.738281 10.550781 -1.039062 9.65625 -0.5625 C 8.769531 -0.0820312 7.734375 0.15625 6.546875 0.15625 C 4.710938 0.15625 3.273438 -0.375 2.234375 -1.4375 C 1.203125 -2.507812 0.6875 -3.972656 0.6875 -5.828125 C 0.6875 -7.679688 1.203125 -9.128906 2.234375 -10.171875 C 3.273438 -11.210938 4.71875 -11.734375 6.5625 -11.734375 C 8.394531 -11.734375 9.828125 -11.207031 10.859375 -10.15625 C 11.898438 -9.101562 12.421875 -7.660156 12.421875 -5.828125 Z M 9.953125 -5.828125 C 9.953125 -7.078125 9.65625 -8.054688 9.0625 -8.765625 C 8.46875 -9.472656 7.632812 -9.828125 6.5625 -9.828125 C 5.46875 -9.828125 4.625 -9.472656 4.03125 -8.765625 C 3.4375 -8.066406 3.140625 -7.085938 3.140625 -5.828125 C 3.140625 -4.554688 3.441406 -3.554688 4.046875 -2.828125 C 4.660156 -2.097656 5.492188 -1.734375 6.546875 -1.734375 C 7.628906 -1.734375 8.46875 -2.085938 9.0625 -2.796875 C 9.65625 -3.515625 9.953125 -4.523438 9.953125 -5.828125 Z M 9.953125 -5.828125 "/></g></g></g><g fill="#041227" fill-opacity="1"><g transform="translate(198.535663, 182.651488)"><g><path d="M 8.203125 0 L 3.140625 -8.90625 C 3.242188 -8.039062 3.296875 -7.34375 3.296875 -6.8125 L 3.296875 0 L 1.125 0 L 1.125 -11.5625 L 3.90625 -11.5625 L 9.046875 -2.578125 C 8.953125 -3.410156 8.90625 -4.164062 8.90625 -4.84375 L 8.90625 -11.5625 L 11.0625 -11.5625 L 11.0625 0 Z M 8.203125 0 "/></g></g></g><g fill="#0080ff" fill-opacity="1"><g transform="translate(209.20393, 182.651488)"><g><path d="M 1.390625 0 L 1.390625 -11.5625 L 2.953125 -11.5625 L 2.953125 -1.28125 L 8.828125 -1.28125 L 8.828125 0 Z M 1.390625 0 "/></g></g></g><g fill="#0080ff" fill-opacity="1"><g transform="translate(219.060767, 182.651488)"><g><path d="M 9.625 0 L 8.296875 -3.375 L 3 -3.375 L 1.671875 0 L 0.03125 0 L 4.78125 -11.5625 L 6.5625 -11.5625 L 11.234375 0 Z M 5.65625 -10.375 L 5.578125 -10.140625 C 5.441406 -9.691406 5.238281 -9.113281 4.96875 -8.40625 L 3.484375 -4.59375 L 7.828125 -4.59375 L 6.328125 -8.421875 C 6.179688 -8.796875 6.03125 -9.21875 5.875 -9.6875 Z M 5.65625 -10.375 "/></g></g></g><g fill="#0080ff" fill-opacity="1"><g transform="translate(230.788551, 182.651488)"><g><path d="M 10.375 -3.25 C 10.375 -2.226562 9.992188 -1.429688 9.234375 -0.859375 C 8.484375 -0.285156 7.441406 0 6.109375 0 L 1.390625 0 L 1.390625 -11.5625 L 5.609375 -11.5625 C 8.335938 -11.5625 9.703125 -10.625 9.703125 -8.75 C 9.703125 -8.0625 9.507812 -7.484375 9.125 -7.015625 C 8.738281 -6.554688 8.191406 -6.25 7.484375 -6.09375 C 8.410156 -5.988281 9.125 -5.679688 9.625 -5.171875 C 10.125 -4.660156 10.375 -4.019531 10.375 -3.25 Z M 8.109375 -8.5625 C 8.109375 -9.1875 7.894531 -9.628906 7.46875 -9.890625 C 7.039062 -10.160156 6.421875 -10.296875 5.609375 -10.296875 L 2.953125 -10.296875 L 2.953125 -6.640625 L 5.609375 -6.640625 C 6.453125 -6.640625 7.078125 -6.796875 7.484375 -7.109375 C 7.898438 -7.429688 8.109375 -7.914062 8.109375 -8.5625 Z M 8.78125 -3.375 C 8.78125 -4.738281 7.816406 -5.421875 5.890625 -5.421875 L 2.953125 -5.421875 L 2.953125 -1.25 L 6.015625 -1.25 C 6.984375 -1.25 7.6875 -1.425781 8.125 -1.78125 C 8.5625 -2.144531 8.78125 -2.675781 8.78125 -3.375 Z M 8.78125 -3.375 "/></g></g></g><g clip-path="url(#7da25d2bbf)"><g fill="#0080ff" fill-opacity="1"><g transform="translate(242.516334, 182.651488)"><g><path d="M 10.484375 -3.1875 C 10.484375 -2.125 10.0625 -1.300781 9.21875 -0.71875 C 8.382812 -0.132812 7.207031 0.15625 5.6875 0.15625 C 2.851562 0.15625 1.210938 -0.816406 0.765625 -2.765625 L 2.296875 -3.078125 C 2.472656 -2.378906 2.84375 -1.867188 3.40625 -1.546875 C 3.976562 -1.222656 4.757812 -1.0625 5.75 -1.0625 C 6.769531 -1.0625 7.554688 -1.234375 8.109375 -1.578125 C 8.660156 -1.921875 8.9375 -2.429688 8.9375 -3.109375 C 8.9375 -3.484375 8.847656 -3.785156 8.671875 -4.015625 C 8.492188 -4.253906 8.25 -4.453125 7.9375 -4.609375 C 7.625 -4.765625 7.25 -4.894531 6.8125 -5 C 6.382812 -5.101562 5.90625 -5.210938 5.375 -5.328125 C 4.457031 -5.535156 3.757812 -5.738281 3.28125 -5.9375 C 2.8125 -6.132812 2.4375 -6.359375 2.15625 -6.609375 C 1.882812 -6.859375 1.675781 -7.148438 1.53125 -7.484375 C 1.382812 -7.816406 1.3125 -8.203125 1.3125 -8.640625 C 1.3125 -9.628906 1.691406 -10.390625 2.453125 -10.921875 C 3.210938 -11.460938 4.300781 -11.734375 5.71875 -11.734375 C 7.039062 -11.734375 8.050781 -11.53125 8.75 -11.125 C 9.445312 -10.71875 9.9375 -10.035156 10.21875 -9.078125 L 8.671875 -8.796875 C 8.492188 -9.410156 8.164062 -9.851562 7.6875 -10.125 C 7.21875 -10.40625 6.554688 -10.546875 5.703125 -10.546875 C 4.773438 -10.546875 4.066406 -10.390625 3.578125 -10.078125 C 3.085938 -9.773438 2.84375 -9.320312 2.84375 -8.71875 C 2.84375 -8.363281 2.9375 -8.066406 3.125 -7.828125 C 3.320312 -7.597656 3.597656 -7.398438 3.953125 -7.234375 C 4.304688 -7.078125 5.019531 -6.882812 6.09375 -6.65625 C 6.445312 -6.570312 6.800781 -6.488281 7.15625 -6.40625 C 7.507812 -6.320312 7.847656 -6.21875 8.171875 -6.09375 C 8.492188 -5.976562 8.796875 -5.84375 9.078125 -5.6875 C 9.367188 -5.53125 9.617188 -5.332031 9.828125 -5.09375 C 10.035156 -4.863281 10.195312 -4.59375 10.3125 -4.28125 C 10.425781 -3.976562 10.484375 -3.613281 10.484375 -3.1875 Z M 10.484375 -3.1875 "/></g></g></g></g><g fill="#0080ff" fill-opacity="1"><g transform="translate(139.270689, 189.567544)"><g><path d="M 1.65625 -2.859375 L 1.65625 0 L 1.21875 0 L 1.21875 -2.859375 L 0.109375 -2.859375 L 0.109375 -3.21875 L 2.765625 -3.21875 L 2.765625 -2.859375 Z M 1.65625 -2.859375 "/></g></g></g><g fill="#0080ff" fill-opacity="1"><g transform="translate(142.676805, 189.567544)"><g><path d="M 0.734375 -2.046875 C 0.816406 -2.203125 0.921875 -2.316406 1.046875 -2.390625 C 1.171875 -2.472656 1.328125 -2.515625 1.515625 -2.515625 C 1.785156 -2.515625 1.984375 -2.445312 2.109375 -2.3125 C 2.242188 -2.175781 2.3125 -1.953125 2.3125 -1.640625 L 2.3125 0 L 1.890625 0 L 1.890625 -1.5625 C 1.890625 -1.738281 1.875 -1.867188 1.84375 -1.953125 C 1.8125 -2.035156 1.757812 -2.097656 1.6875 -2.140625 C 1.613281 -2.179688 1.507812 -2.203125 1.375 -2.203125 C 1.1875 -2.203125 1.03125 -2.132812 0.90625 -2 C 0.789062 -1.863281 0.734375 -1.679688 0.734375 -1.453125 L 0.734375 0 L 0.328125 0 L 0.328125 -3.390625 L 0.734375 -3.390625 L 0.734375 -2.5 C 0.734375 -2.40625 0.726562 -2.304688 0.71875 -2.203125 C 0.71875 -2.109375 0.71875 -2.054688 0.71875 -2.046875 Z M 0.734375 -2.046875 "/></g></g></g><g fill="#0080ff" fill-opacity="1"><g transform="translate(145.825933, 189.567544)"><g><path d="M 0.640625 -1.140625 C 0.640625 -0.859375 0.695312 -0.640625 0.8125 -0.484375 C 0.925781 -0.335938 1.097656 -0.265625 1.328125 -0.265625 C 1.503906 -0.265625 1.644531 -0.300781 1.75 -0.375 C 1.863281 -0.445312 1.941406 -0.535156 1.984375 -0.640625 L 2.34375 -0.53125 C 2.195312 -0.144531 1.859375 0.046875 1.328125 0.046875 C 0.960938 0.046875 0.679688 -0.0625 0.484375 -0.28125 C 0.296875 -0.5 0.203125 -0.820312 0.203125 -1.25 C 0.203125 -1.65625 0.296875 -1.96875 0.484375 -2.1875 C 0.679688 -2.40625 0.957031 -2.515625 1.3125 -2.515625 C 2.039062 -2.515625 2.40625 -2.078125 2.40625 -1.203125 L 2.40625 -1.140625 Z M 1.984375 -1.46875 C 1.953125 -1.726562 1.878906 -1.914062 1.765625 -2.03125 C 1.660156 -2.144531 1.503906 -2.203125 1.296875 -2.203125 C 1.097656 -2.203125 0.941406 -2.132812 0.828125 -2 C 0.710938 -1.875 0.648438 -1.695312 0.640625 -1.46875 Z M 1.984375 -1.46875 "/></g></g></g><g fill="#0080ff" fill-opacity="1"><g transform="translate(148.975061, 189.567544)"><g/></g></g><g fill="#0080ff" fill-opacity="1"><g transform="translate(150.556428, 189.567544)"><g><path d="M 2.6875 0 L 2.3125 -0.9375 L 0.828125 -0.9375 L 0.46875 0 L 0.015625 0 L 1.328125 -3.21875 L 1.828125 -3.21875 L 3.125 0 Z M 1.578125 -2.890625 L 1.546875 -2.828125 C 1.515625 -2.691406 1.457031 -2.53125 1.375 -2.34375 L 0.96875 -1.28125 L 2.171875 -1.28125 L 1.765625 -2.34375 C 1.722656 -2.445312 1.679688 -2.566406 1.640625 -2.703125 Z M 1.578125 -2.890625 "/></g></g></g><g fill="#0080ff" fill-opacity="1"><g transform="translate(154.226411, 189.567544)"><g><path d="M 0.328125 0 L 0.328125 -1.890625 C 0.328125 -2.066406 0.320312 -2.257812 0.3125 -2.46875 L 0.703125 -2.46875 C 0.710938 -2.1875 0.71875 -2.019531 0.71875 -1.96875 L 0.734375 -1.96875 C 0.796875 -2.175781 0.867188 -2.316406 0.953125 -2.390625 C 1.046875 -2.472656 1.171875 -2.515625 1.328125 -2.515625 C 1.378906 -2.515625 1.429688 -2.503906 1.484375 -2.484375 L 1.484375 -2.109375 C 1.429688 -2.128906 1.359375 -2.140625 1.265625 -2.140625 C 1.097656 -2.140625 0.96875 -2.066406 0.875 -1.921875 C 0.78125 -1.773438 0.734375 -1.5625 0.734375 -1.28125 L 0.734375 0 Z M 0.328125 0 "/></g></g></g><g fill="#0080ff" fill-opacity="1"><g transform="translate(156.326928, 189.567544)"><g><path d="M 0.625 -1.25 C 0.625 -0.914062 0.675781 -0.671875 0.78125 -0.515625 C 0.882812 -0.359375 1.046875 -0.28125 1.265625 -0.28125 C 1.410156 -0.28125 1.53125 -0.316406 1.625 -0.390625 C 1.726562 -0.472656 1.789062 -0.597656 1.8125 -0.765625 L 2.234375 -0.734375 C 2.191406 -0.492188 2.085938 -0.300781 1.921875 -0.15625 C 1.753906 -0.0195312 1.535156 0.046875 1.265625 0.046875 C 0.921875 0.046875 0.65625 -0.0625 0.46875 -0.28125 C 0.289062 -0.5 0.203125 -0.816406 0.203125 -1.234375 C 0.203125 -1.648438 0.289062 -1.96875 0.46875 -2.1875 C 0.65625 -2.40625 0.921875 -2.515625 1.265625 -2.515625 C 1.515625 -2.515625 1.722656 -2.445312 1.890625 -2.3125 C 2.066406 -2.1875 2.175781 -2.007812 2.21875 -1.78125 L 1.78125 -1.75 C 1.757812 -1.882812 1.707031 -1.988281 1.625 -2.0625 C 1.539062 -2.144531 1.414062 -2.1875 1.25 -2.1875 C 1.03125 -2.1875 0.867188 -2.113281 0.765625 -1.96875 C 0.671875 -1.832031 0.625 -1.59375 0.625 -1.25 Z M 0.625 -1.25 "/></g></g></g><g fill="#0080ff" fill-opacity="1"><g transform="translate(159.212178, 189.567544)"><g><path d="M 0.734375 -2.046875 C 0.816406 -2.203125 0.921875 -2.316406 1.046875 -2.390625 C 1.171875 -2.472656 1.328125 -2.515625 1.515625 -2.515625 C 1.785156 -2.515625 1.984375 -2.445312 2.109375 -2.3125 C 2.242188 -2.175781 2.3125 -1.953125 2.3125 -1.640625 L 2.3125 0 L 1.890625 0 L 1.890625 -1.5625 C 1.890625 -1.738281 1.875 -1.867188 1.84375 -1.953125 C 1.8125 -2.035156 1.757812 -2.097656 1.6875 -2.140625 C 1.613281 -2.179688 1.507812 -2.203125 1.375 -2.203125 C 1.1875 -2.203125 1.03125 -2.132812 0.90625 -2 C 0.789062 -1.863281 0.734375 -1.679688 0.734375 -1.453125 L 0.734375 0 L 0.328125 0 L 0.328125 -3.390625 L 0.734375 -3.390625 L 0.734375 -2.5 C 0.734375 -2.40625 0.726562 -2.304688 0.71875 -2.203125 C 0.71875 -2.109375 0.71875 -2.054688 0.71875 -2.046875 Z M 0.734375 -2.046875 "/></g></g></g><g fill="#0080ff" fill-opacity="1"><g transform="translate(162.361305, 189.567544)"><g><path d="M 0.3125 -3 L 0.3125 -3.390625 L 0.734375 -3.390625 L 0.734375 -3 Z M 0.3125 0 L 0.3125 -2.46875 L 0.734375 -2.46875 L 0.734375 0 Z M 0.3125 0 "/></g></g></g><g fill="#0080ff" fill-opacity="1"><g transform="translate(163.940968, 189.567544)"><g><path d="M 1.265625 -0.015625 C 1.128906 0.015625 0.992188 0.03125 0.859375 0.03125 C 0.523438 0.03125 0.359375 -0.148438 0.359375 -0.515625 L 0.359375 -2.171875 L 0.078125 -2.171875 L 0.078125 -2.46875 L 0.375 -2.46875 L 0.5 -3.015625 L 0.765625 -3.015625 L 0.765625 -2.46875 L 1.234375 -2.46875 L 1.234375 -2.171875 L 0.765625 -2.171875 L 0.765625 -0.609375 C 0.765625 -0.492188 0.785156 -0.410156 0.828125 -0.359375 C 0.867188 -0.316406 0.9375 -0.296875 1.03125 -0.296875 C 1.082031 -0.296875 1.160156 -0.304688 1.265625 -0.328125 Z M 1.265625 -0.015625 "/></g></g></g><g fill="#0080ff" fill-opacity="1"><g transform="translate(165.782207, 189.567544)"><g><path d="M 0.640625 -1.140625 C 0.640625 -0.859375 0.695312 -0.640625 0.8125 -0.484375 C 0.925781 -0.335938 1.097656 -0.265625 1.328125 -0.265625 C 1.503906 -0.265625 1.644531 -0.300781 1.75 -0.375 C 1.863281 -0.445312 1.941406 -0.535156 1.984375 -0.640625 L 2.34375 -0.53125 C 2.195312 -0.144531 1.859375 0.046875 1.328125 0.046875 C 0.960938 0.046875 0.679688 -0.0625 0.484375 -0.28125 C 0.296875 -0.5 0.203125 -0.820312 0.203125 -1.25 C 0.203125 -1.65625 0.296875 -1.96875 0.484375 -2.1875 C 0.679688 -2.40625 0.957031 -2.515625 1.3125 -2.515625 C 2.039062 -2.515625 2.40625 -2.078125 2.40625 -1.203125 L 2.40625 -1.140625 Z M 1.984375 -1.46875 C 1.953125 -1.726562 1.878906 -1.914062 1.765625 -2.03125 C 1.660156 -2.144531 1.503906 -2.203125 1.296875 -2.203125 C 1.097656 -2.203125 0.941406 -2.132812 0.828125 -2 C 0.710938 -1.875 0.648438 -1.695312 0.640625 -1.46875 Z M 1.984375 -1.46875 "/></g></g></g><g fill="#0080ff" fill-opacity="1"><g transform="translate(168.931335, 189.567544)"><g><path d="M 0.625 -1.25 C 0.625 -0.914062 0.675781 -0.671875 0.78125 -0.515625 C 0.882812 -0.359375 1.046875 -0.28125 1.265625 -0.28125 C 1.410156 -0.28125 1.53125 -0.316406 1.625 -0.390625 C 1.726562 -0.472656 1.789062 -0.597656 1.8125 -0.765625 L 2.234375 -0.734375 C 2.191406 -0.492188 2.085938 -0.300781 1.921875 -0.15625 C 1.753906 -0.0195312 1.535156 0.046875 1.265625 0.046875 C 0.921875 0.046875 0.65625 -0.0625 0.46875 -0.28125 C 0.289062 -0.5 0.203125 -0.816406 0.203125 -1.234375 C 0.203125 -1.648438 0.289062 -1.96875 0.46875 -2.1875 C 0.65625 -2.40625 0.921875 -2.515625 1.265625 -2.515625 C 1.515625 -2.515625 1.722656 -2.445312 1.890625 -2.3125 C 2.066406 -2.1875 2.175781 -2.007812 2.21875 -1.78125 L 1.78125 -1.75 C 1.757812 -1.882812 1.707031 -1.988281 1.625 -2.0625 C 1.539062 -2.144531 1.414062 -2.1875 1.25 -2.1875 C 1.03125 -2.1875 0.867188 -2.113281 0.765625 -1.96875 C 0.671875 -1.832031 0.625 -1.59375 0.625 -1.25 Z M 0.625 -1.25 "/></g></g></g><g fill="#0080ff" fill-opacity="1"><g transform="translate(171.816585, 189.567544)"><g><path d="M 1.265625 -0.015625 C 1.128906 0.015625 0.992188 0.03125 0.859375 0.03125 C 0.523438 0.03125 0.359375 -0.148438 0.359375 -0.515625 L 0.359375 -2.171875 L 0.078125 -2.171875 L 0.078125 -2.46875 L 0.375 -2.46875 L 0.5 -3.015625 L 0.765625 -3.015625 L 0.765625 -2.46875 L 1.234375 -2.46875 L 1.234375 -2.171875 L 0.765625 -2.171875 L 0.765625 -0.609375 C 0.765625 -0.492188 0.785156 -0.410156 0.828125 -0.359375 C 0.867188 -0.316406 0.9375 -0.296875 1.03125 -0.296875 C 1.082031 -0.296875 1.160156 -0.304688 1.265625 -0.328125 Z M 1.265625 -0.015625 "/></g></g></g><g fill="#0080ff" fill-opacity="1"><g transform="translate(173.657825, 189.567544)"><g><path d="M 0.71875 -2.46875 L 0.71875 -0.90625 C 0.71875 -0.738281 0.734375 -0.609375 0.765625 -0.515625 C 0.796875 -0.429688 0.847656 -0.367188 0.921875 -0.328125 C 0.992188 -0.285156 1.097656 -0.265625 1.234375 -0.265625 C 1.429688 -0.265625 1.585938 -0.332031 1.703125 -0.46875 C 1.816406 -0.601562 1.875 -0.789062 1.875 -1.03125 L 1.875 -2.46875 L 2.296875 -2.46875 L 2.296875 -0.53125 C 2.296875 -0.238281 2.296875 -0.0625 2.296875 0 L 1.90625 0 C 1.90625 -0.0078125 1.90625 -0.03125 1.90625 -0.0625 C 1.90625 -0.09375 1.90625 -0.128906 1.90625 -0.171875 C 1.90625 -0.210938 1.898438 -0.296875 1.890625 -0.421875 C 1.796875 -0.253906 1.6875 -0.132812 1.5625 -0.0625 C 1.4375 0.0078125 1.28125 0.046875 1.09375 0.046875 C 0.820312 0.046875 0.625 -0.0195312 0.5 -0.15625 C 0.375 -0.289062 0.3125 -0.515625 0.3125 -0.828125 L 0.3125 -2.46875 Z M 0.71875 -2.46875 "/></g></g></g><g fill="#0080ff" fill-opacity="1"><g transform="translate(176.806953, 189.567544)"><g><path d="M 0.328125 0 L 0.328125 -1.890625 C 0.328125 -2.066406 0.320312 -2.257812 0.3125 -2.46875 L 0.703125 -2.46875 C 0.710938 -2.1875 0.71875 -2.019531 0.71875 -1.96875 L 0.734375 -1.96875 C 0.796875 -2.175781 0.867188 -2.316406 0.953125 -2.390625 C 1.046875 -2.472656 1.171875 -2.515625 1.328125 -2.515625 C 1.378906 -2.515625 1.429688 -2.503906 1.484375 -2.484375 L 1.484375 -2.109375 C 1.429688 -2.128906 1.359375 -2.140625 1.265625 -2.140625 C 1.097656 -2.140625 0.96875 -2.066406 0.875 -1.921875 C 0.78125 -1.773438 0.734375 -1.5625 0.734375 -1.28125 L 0.734375 0 Z M 0.328125 0 "/></g></g></g><g fill="#0080ff" fill-opacity="1"><g transform="translate(178.90747, 189.567544)"><g><path d="M 0.640625 -1.140625 C 0.640625 -0.859375 0.695312 -0.640625 0.8125 -0.484375 C 0.925781 -0.335938 1.097656 -0.265625 1.328125 -0.265625 C 1.503906 -0.265625 1.644531 -0.300781 1.75 -0.375 C 1.863281 -0.445312 1.941406 -0.535156 1.984375 -0.640625 L 2.34375 -0.53125 C 2.195312 -0.144531 1.859375 0.046875 1.328125 0.046875 C 0.960938 0.046875 0.679688 -0.0625 0.484375 -0.28125 C 0.296875 -0.5 0.203125 -0.820312 0.203125 -1.25 C 0.203125 -1.65625 0.296875 -1.96875 0.484375 -2.1875 C 0.679688 -2.40625 0.957031 -2.515625 1.3125 -2.515625 C 2.039062 -2.515625 2.40625 -2.078125 2.40625 -1.203125 L 2.40625 -1.140625 Z M 1.984375 -1.46875 C 1.953125 -1.726562 1.878906 -1.914062 1.765625 -2.03125 C 1.660156 -2.144531 1.503906 -2.203125 1.296875 -2.203125 C 1.097656 -2.203125 0.941406 -2.132812 0.828125 -2 C 0.710938 -1.875 0.648438 -1.695312 0.640625 -1.46875 Z M 1.984375 -1.46875 "/></g></g></g><g fill="#0080ff" fill-opacity="1"><g transform="translate(182.056598, 189.567544)"><g/></g></g><g fill="#0080ff" fill-opacity="1"><g transform="translate(183.897837, 189.567544)"><g><path d="M 2.421875 -1.234375 C 2.421875 -0.804688 2.320312 -0.484375 2.125 -0.265625 C 1.9375 -0.0546875 1.660156 0.046875 1.296875 0.046875 C 0.929688 0.046875 0.65625 -0.0625 0.46875 -0.28125 C 0.289062 -0.5 0.203125 -0.816406 0.203125 -1.234375 C 0.203125 -2.085938 0.570312 -2.515625 1.3125 -2.515625 C 1.6875 -2.515625 1.960938 -2.410156 2.140625 -2.203125 C 2.328125 -1.992188 2.421875 -1.671875 2.421875 -1.234375 Z M 1.984375 -1.234375 C 1.984375 -1.578125 1.929688 -1.820312 1.828125 -1.96875 C 1.722656 -2.125 1.550781 -2.203125 1.3125 -2.203125 C 1.070312 -2.203125 0.894531 -2.125 0.78125 -1.96875 C 0.675781 -1.8125 0.625 -1.566406 0.625 -1.234375 C 0.625 -0.910156 0.675781 -0.664062 0.78125 -0.5 C 0.894531 -0.332031 1.066406 -0.25 1.296875 -0.25 C 1.546875 -0.25 1.722656 -0.328125 1.828125 -0.484375 C 1.929688 -0.648438 1.984375 -0.898438 1.984375 -1.234375 Z M 1.984375 -1.234375 "/></g></g></g><g fill="#0080ff" fill-opacity="1"><g transform="translate(187.046965, 189.567544)"><g><path d="M 0.828125 -2.171875 L 0.828125 0 L 0.421875 0 L 0.421875 -2.171875 L 0.0625 -2.171875 L 0.0625 -2.46875 L 0.421875 -2.46875 L 0.421875 -2.75 C 0.421875 -2.96875 0.46875 -3.125 0.5625 -3.21875 C 0.664062 -3.320312 0.816406 -3.375 1.015625 -3.375 C 1.128906 -3.375 1.226562 -3.367188 1.3125 -3.359375 L 1.3125 -3.046875 C 1.238281 -3.054688 1.175781 -3.0625 1.125 -3.0625 C 1.019531 -3.0625 0.941406 -3.035156 0.890625 -2.984375 C 0.847656 -2.929688 0.828125 -2.832031 0.828125 -2.6875 L 0.828125 -2.46875 L 1.3125 -2.46875 L 1.3125 -2.171875 Z M 0.828125 -2.171875 "/></g></g></g><g fill="#0080ff" fill-opacity="1"><g transform="translate(188.888205, 189.567544)"><g/></g></g><g fill="#0080ff" fill-opacity="1"><g transform="translate(190.729445, 189.567544)"><g><path d="M 0.4375 0 L 0.4375 -3.21875 L 0.875 -3.21875 L 0.875 0 Z M 0.4375 0 "/></g></g></g><g fill="#0080ff" fill-opacity="1"><g transform="translate(192.570685, 189.567544)"><g><path d="M 1.890625 0 L 1.890625 -1.5625 C 1.890625 -1.726562 1.875 -1.851562 1.84375 -1.9375 C 1.8125 -2.03125 1.757812 -2.097656 1.6875 -2.140625 C 1.625 -2.179688 1.519531 -2.203125 1.375 -2.203125 C 1.175781 -2.203125 1.019531 -2.132812 0.90625 -2 C 0.789062 -1.863281 0.734375 -1.675781 0.734375 -1.4375 L 0.734375 0 L 0.328125 0 L 0.328125 -1.9375 C 0.328125 -2.226562 0.320312 -2.40625 0.3125 -2.46875 L 0.703125 -2.46875 C 0.703125 -2.457031 0.703125 -2.4375 0.703125 -2.40625 C 0.703125 -2.375 0.703125 -2.332031 0.703125 -2.28125 C 0.710938 -2.238281 0.71875 -2.160156 0.71875 -2.046875 L 0.734375 -2.046875 C 0.828125 -2.210938 0.9375 -2.332031 1.0625 -2.40625 C 1.1875 -2.476562 1.335938 -2.515625 1.515625 -2.515625 C 1.796875 -2.515625 2 -2.445312 2.125 -2.3125 C 2.25 -2.175781 2.3125 -1.953125 2.3125 -1.640625 L 2.3125 0 Z M 1.890625 0 "/></g></g></g><g fill="#0080ff" fill-opacity="1"><g transform="translate(195.719812, 189.567544)"><g><path d="M 1.265625 -0.015625 C 1.128906 0.015625 0.992188 0.03125 0.859375 0.03125 C 0.523438 0.03125 0.359375 -0.148438 0.359375 -0.515625 L 0.359375 -2.171875 L 0.078125 -2.171875 L 0.078125 -2.46875 L 0.375 -2.46875 L 0.5 -3.015625 L 0.765625 -3.015625 L 0.765625 -2.46875 L 1.234375 -2.46875 L 1.234375 -2.171875 L 0.765625 -2.171875 L 0.765625 -0.609375 C 0.765625 -0.492188 0.785156 -0.410156 0.828125 -0.359375 C 0.867188 -0.316406 0.9375 -0.296875 1.03125 -0.296875 C 1.082031 -0.296875 1.160156 -0.304688 1.265625 -0.328125 Z M 1.265625 -0.015625 "/></g></g></g><g fill="#0080ff" fill-opacity="1"><g transform="translate(197.561052, 189.567544)"><g><path d="M 0.640625 -1.140625 C 0.640625 -0.859375 0.695312 -0.640625 0.8125 -0.484375 C 0.925781 -0.335938 1.097656 -0.265625 1.328125 -0.265625 C 1.503906 -0.265625 1.644531 -0.300781 1.75 -0.375 C 1.863281 -0.445312 1.941406 -0.535156 1.984375 -0.640625 L 2.34375 -0.53125 C 2.195312 -0.144531 1.859375 0.046875 1.328125 0.046875 C 0.960938 0.046875 0.679688 -0.0625 0.484375 -0.28125 C 0.296875 -0.5 0.203125 -0.820312 0.203125 -1.25 C 0.203125 -1.65625 0.296875 -1.96875 0.484375 -2.1875 C 0.679688 -2.40625 0.957031 -2.515625 1.3125 -2.515625 C 2.039062 -2.515625 2.40625 -2.078125 2.40625 -1.203125 L 2.40625 -1.140625 Z M 1.984375 -1.46875 C 1.953125 -1.726562 1.878906 -1.914062 1.765625 -2.03125 C 1.660156 -2.144531 1.503906 -2.203125 1.296875 -2.203125 C 1.097656 -2.203125 0.941406 -2.132812 0.828125 -2 C 0.710938 -1.875 0.648438 -1.695312 0.640625 -1.46875 Z M 1.984375 -1.46875 "/></g></g></g><g fill="#0080ff" fill-opacity="1"><g transform="translate(200.71018, 189.567544)"><g><path d="M 0.3125 0 L 0.3125 -3.390625 L 0.734375 -3.390625 L 0.734375 0 Z M 0.3125 0 "/></g></g></g><g fill="#0080ff" fill-opacity="1"><g transform="translate(202.289842, 189.567544)"><g><path d="M 0.3125 0 L 0.3125 -3.390625 L 0.734375 -3.390625 L 0.734375 0 Z M 0.3125 0 "/></g></g></g><g fill="#0080ff" fill-opacity="1"><g transform="translate(203.869504, 189.567544)"><g><path d="M 0.3125 -3 L 0.3125 -3.390625 L 0.734375 -3.390625 L 0.734375 -3 Z M 0.3125 0 L 0.3125 -2.46875 L 0.734375 -2.46875 L 0.734375 0 Z M 0.3125 0 "/></g></g></g><g fill="#0080ff" fill-opacity="1"><g transform="translate(205.449167, 189.567544)"><g><path d="M 1.265625 0.96875 C 0.992188 0.96875 0.773438 0.914062 0.609375 0.8125 C 0.453125 0.707031 0.347656 0.554688 0.296875 0.359375 L 0.71875 0.296875 C 0.75 0.410156 0.8125 0.5 0.90625 0.5625 C 1 0.625 1.117188 0.65625 1.265625 0.65625 C 1.679688 0.65625 1.890625 0.414062 1.890625 -0.0625 L 1.890625 -0.453125 C 1.804688 -0.296875 1.695312 -0.175781 1.5625 -0.09375 C 1.425781 -0.0195312 1.265625 0.015625 1.078125 0.015625 C 0.773438 0.015625 0.550781 -0.0820312 0.40625 -0.28125 C 0.269531 -0.476562 0.203125 -0.796875 0.203125 -1.234375 C 0.203125 -1.671875 0.273438 -1.988281 0.421875 -2.1875 C 0.578125 -2.394531 0.8125 -2.5 1.125 -2.5 C 1.300781 -2.5 1.453125 -2.457031 1.578125 -2.375 C 1.710938 -2.300781 1.816406 -2.191406 1.890625 -2.046875 C 1.890625 -2.085938 1.890625 -2.164062 1.890625 -2.28125 C 1.898438 -2.394531 1.910156 -2.457031 1.921875 -2.46875 L 2.3125 -2.46875 C 2.300781 -2.382812 2.296875 -2.210938 2.296875 -1.953125 L 2.296875 -0.078125 C 2.296875 0.617188 1.953125 0.96875 1.265625 0.96875 Z M 1.890625 -1.234375 C 1.890625 -1.429688 1.859375 -1.601562 1.796875 -1.75 C 1.742188 -1.894531 1.664062 -2.003906 1.5625 -2.078125 C 1.46875 -2.160156 1.359375 -2.203125 1.234375 -2.203125 C 1.015625 -2.203125 0.859375 -2.125 0.765625 -1.96875 C 0.671875 -1.820312 0.625 -1.578125 0.625 -1.234375 C 0.625 -0.898438 0.664062 -0.65625 0.75 -0.5 C 0.84375 -0.351562 1 -0.28125 1.21875 -0.28125 C 1.351562 -0.28125 1.46875 -0.316406 1.5625 -0.390625 C 1.664062 -0.472656 1.742188 -0.582031 1.796875 -0.71875 C 1.859375 -0.863281 1.890625 -1.035156 1.890625 -1.234375 Z M 1.890625 -1.234375 "/></g></g></g><g fill="#0080ff" fill-opacity="1"><g transform="translate(208.598294, 189.567544)"><g><path d="M 0.640625 -1.140625 C 0.640625 -0.859375 0.695312 -0.640625 0.8125 -0.484375 C 0.925781 -0.335938 1.097656 -0.265625 1.328125 -0.265625 C 1.503906 -0.265625 1.644531 -0.300781 1.75 -0.375 C 1.863281 -0.445312 1.941406 -0.535156 1.984375 -0.640625 L 2.34375 -0.53125 C 2.195312 -0.144531 1.859375 0.046875 1.328125 0.046875 C 0.960938 0.046875 0.679688 -0.0625 0.484375 -0.28125 C 0.296875 -0.5 0.203125 -0.820312 0.203125 -1.25 C 0.203125 -1.65625 0.296875 -1.96875 0.484375 -2.1875 C 0.679688 -2.40625 0.957031 -2.515625 1.3125 -2.515625 C 2.039062 -2.515625 2.40625 -2.078125 2.40625 -1.203125 L 2.40625 -1.140625 Z M 1.984375 -1.46875 C 1.953125 -1.726562 1.878906 -1.914062 1.765625 -2.03125 C 1.660156 -2.144531 1.503906 -2.203125 1.296875 -2.203125 C 1.097656 -2.203125 0.941406 -2.132812 0.828125 -2 C 0.710938 -1.875 0.648438 -1.695312 0.640625 -1.46875 Z M 1.984375 -1.46875 "/></g></g></g><g fill="#0080ff" fill-opacity="1"><g transform="translate(211.747422, 189.567544)"><g><path d="M 1.890625 0 L 1.890625 -1.5625 C 1.890625 -1.726562 1.875 -1.851562 1.84375 -1.9375 C 1.8125 -2.03125 1.757812 -2.097656 1.6875 -2.140625 C 1.625 -2.179688 1.519531 -2.203125 1.375 -2.203125 C 1.175781 -2.203125 1.019531 -2.132812 0.90625 -2 C 0.789062 -1.863281 0.734375 -1.675781 0.734375 -1.4375 L 0.734375 0 L 0.328125 0 L 0.328125 -1.9375 C 0.328125 -2.226562 0.320312 -2.40625 0.3125 -2.46875 L 0.703125 -2.46875 C 0.703125 -2.457031 0.703125 -2.4375 0.703125 -2.40625 C 0.703125 -2.375 0.703125 -2.332031 0.703125 -2.28125 C 0.710938 -2.238281 0.71875 -2.160156 0.71875 -2.046875 L 0.734375 -2.046875 C 0.828125 -2.210938 0.9375 -2.332031 1.0625 -2.40625 C 1.1875 -2.476562 1.335938 -2.515625 1.515625 -2.515625 C 1.796875 -2.515625 2 -2.445312 2.125 -2.3125 C 2.25 -2.175781 2.3125 -1.953125 2.3125 -1.640625 L 2.3125 0 Z M 1.890625 0 "/></g></g></g><g fill="#0080ff" fill-opacity="1"><g transform="translate(214.89655, 189.567544)"><g><path d="M 1.265625 -0.015625 C 1.128906 0.015625 0.992188 0.03125 0.859375 0.03125 C 0.523438 0.03125 0.359375 -0.148438 0.359375 -0.515625 L 0.359375 -2.171875 L 0.078125 -2.171875 L 0.078125 -2.46875 L 0.375 -2.46875 L 0.5 -3.015625 L 0.765625 -3.015625 L 0.765625 -2.46875 L 1.234375 -2.46875 L 1.234375 -2.171875 L 0.765625 -2.171875 L 0.765625 -0.609375 C 0.765625 -0.492188 0.785156 -0.410156 0.828125 -0.359375 C 0.867188 -0.316406 0.9375 -0.296875 1.03125 -0.296875 C 1.082031 -0.296875 1.160156 -0.304688 1.265625 -0.328125 Z M 1.265625 -0.015625 "/></g></g></g><g fill="#0080ff" fill-opacity="1"><g transform="translate(216.73779, 189.567544)"><g/></g></g><g fill="#0080ff" fill-opacity="1"><g transform="translate(218.57903, 189.567544)"><g><path d="M 2.890625 -0.90625 C 2.890625 -0.625 2.785156 -0.398438 2.578125 -0.234375 C 2.367188 -0.078125 2.078125 0 1.703125 0 L 0.390625 0 L 0.390625 -3.21875 L 1.5625 -3.21875 C 2.320312 -3.21875 2.703125 -2.957031 2.703125 -2.4375 C 2.703125 -2.25 2.644531 -2.085938 2.53125 -1.953125 C 2.425781 -1.828125 2.273438 -1.738281 2.078125 -1.6875 C 2.335938 -1.664062 2.535156 -1.582031 2.671875 -1.4375 C 2.816406 -1.300781 2.890625 -1.125 2.890625 -0.90625 Z M 2.265625 -2.375 C 2.265625 -2.550781 2.203125 -2.675781 2.078125 -2.75 C 1.960938 -2.820312 1.789062 -2.859375 1.5625 -2.859375 L 0.828125 -2.859375 L 0.828125 -1.84375 L 1.5625 -1.84375 C 1.789062 -1.84375 1.960938 -1.882812 2.078125 -1.96875 C 2.203125 -2.0625 2.265625 -2.195312 2.265625 -2.375 Z M 2.453125 -0.9375 C 2.453125 -1.320312 2.179688 -1.515625 1.640625 -1.515625 L 0.828125 -1.515625 L 0.828125 -0.34375 L 1.671875 -0.34375 C 1.941406 -0.34375 2.140625 -0.390625 2.265625 -0.484375 C 2.390625 -0.585938 2.453125 -0.738281 2.453125 -0.9375 Z M 2.453125 -0.9375 "/></g></g></g><g fill="#0080ff" fill-opacity="1"><g transform="translate(222.249012, 189.567544)"><g><path d="M 0.71875 -2.46875 L 0.71875 -0.90625 C 0.71875 -0.738281 0.734375 -0.609375 0.765625 -0.515625 C 0.796875 -0.429688 0.847656 -0.367188 0.921875 -0.328125 C 0.992188 -0.285156 1.097656 -0.265625 1.234375 -0.265625 C 1.429688 -0.265625 1.585938 -0.332031 1.703125 -0.46875 C 1.816406 -0.601562 1.875 -0.789062 1.875 -1.03125 L 1.875 -2.46875 L 2.296875 -2.46875 L 2.296875 -0.53125 C 2.296875 -0.238281 2.296875 -0.0625 2.296875 0 L 1.90625 0 C 1.90625 -0.0078125 1.90625 -0.03125 1.90625 -0.0625 C 1.90625 -0.09375 1.90625 -0.128906 1.90625 -0.171875 C 1.90625 -0.210938 1.898438 -0.296875 1.890625 -0.421875 C 1.796875 -0.253906 1.6875 -0.132812 1.5625 -0.0625 C 1.4375 0.0078125 1.28125 0.046875 1.09375 0.046875 C 0.820312 0.046875 0.625 -0.0195312 0.5 -0.15625 C 0.375 -0.289062 0.3125 -0.515625 0.3125 -0.828125 L 0.3125 -2.46875 Z M 0.71875 -2.46875 "/></g></g></g><g fill="#0080ff" fill-opacity="1"><g transform="translate(225.39814, 189.567544)"><g><path d="M 2.1875 -0.6875 C 2.1875 -0.445312 2.097656 -0.265625 1.921875 -0.140625 C 1.742188 -0.015625 1.492188 0.046875 1.171875 0.046875 C 0.859375 0.046875 0.617188 0 0.453125 -0.09375 C 0.285156 -0.195312 0.175781 -0.359375 0.125 -0.578125 L 0.5 -0.65625 C 0.53125 -0.519531 0.597656 -0.421875 0.703125 -0.359375 C 0.816406 -0.296875 0.972656 -0.265625 1.171875 -0.265625 C 1.378906 -0.265625 1.53125 -0.296875 1.625 -0.359375 C 1.726562 -0.421875 1.78125 -0.519531 1.78125 -0.65625 C 1.78125 -0.75 1.742188 -0.828125 1.671875 -0.890625 C 1.609375 -0.953125 1.503906 -1 1.359375 -1.03125 L 1.0625 -1.109375 C 0.820312 -1.171875 0.648438 -1.226562 0.546875 -1.28125 C 0.453125 -1.34375 0.375 -1.414062 0.3125 -1.5 C 0.257812 -1.59375 0.234375 -1.695312 0.234375 -1.8125 C 0.234375 -2.039062 0.3125 -2.210938 0.46875 -2.328125 C 0.632812 -2.441406 0.867188 -2.5 1.171875 -2.5 C 1.453125 -2.5 1.671875 -2.453125 1.828125 -2.359375 C 1.992188 -2.265625 2.097656 -2.113281 2.140625 -1.90625 L 1.765625 -1.859375 C 1.742188 -1.960938 1.679688 -2.046875 1.578125 -2.109375 C 1.484375 -2.171875 1.347656 -2.203125 1.171875 -2.203125 C 0.984375 -2.203125 0.84375 -2.171875 0.75 -2.109375 C 0.664062 -2.054688 0.625 -1.972656 0.625 -1.859375 C 0.625 -1.785156 0.640625 -1.722656 0.671875 -1.671875 C 0.710938 -1.628906 0.769531 -1.59375 0.84375 -1.5625 C 0.914062 -1.53125 1.066406 -1.488281 1.296875 -1.4375 C 1.515625 -1.382812 1.671875 -1.332031 1.765625 -1.28125 C 1.867188 -1.238281 1.945312 -1.1875 2 -1.125 C 2.0625 -1.070312 2.109375 -1.007812 2.140625 -0.9375 C 2.171875 -0.863281 2.1875 -0.78125 2.1875 -0.6875 Z M 2.1875 -0.6875 "/></g></g></g><g fill="#0080ff" fill-opacity="1"><g transform="translate(228.28339, 189.567544)"><g><path d="M 0.3125 -3 L 0.3125 -3.390625 L 0.734375 -3.390625 L 0.734375 -3 Z M 0.3125 0 L 0.3125 -2.46875 L 0.734375 -2.46875 L 0.734375 0 Z M 0.3125 0 "/></g></g></g><g fill="#0080ff" fill-opacity="1"><g transform="translate(229.863052, 189.567544)"><g><path d="M 1.890625 0 L 1.890625 -1.5625 C 1.890625 -1.726562 1.875 -1.851562 1.84375 -1.9375 C 1.8125 -2.03125 1.757812 -2.097656 1.6875 -2.140625 C 1.625 -2.179688 1.519531 -2.203125 1.375 -2.203125 C 1.175781 -2.203125 1.019531 -2.132812 0.90625 -2 C 0.789062 -1.863281 0.734375 -1.675781 0.734375 -1.4375 L 0.734375 0 L 0.328125 0 L 0.328125 -1.9375 C 0.328125 -2.226562 0.320312 -2.40625 0.3125 -2.46875 L 0.703125 -2.46875 C 0.703125 -2.457031 0.703125 -2.4375 0.703125 -2.40625 C 0.703125 -2.375 0.703125 -2.332031 0.703125 -2.28125 C 0.710938 -2.238281 0.71875 -2.160156 0.71875 -2.046875 L 0.734375 -2.046875 C 0.828125 -2.210938 0.9375 -2.332031 1.0625 -2.40625 C 1.1875 -2.476562 1.335938 -2.515625 1.515625 -2.515625 C 1.796875 -2.515625 2 -2.445312 2.125 -2.3125 C 2.25 -2.175781 2.3125 -1.953125 2.3125 -1.640625 L 2.3125 0 Z M 1.890625 0 "/></g></g></g><g fill="#0080ff" fill-opacity="1"><g transform="translate(233.01218, 189.567544)"><g><path d="M 0.640625 -1.140625 C 0.640625 -0.859375 0.695312 -0.640625 0.8125 -0.484375 C 0.925781 -0.335938 1.097656 -0.265625 1.328125 -0.265625 C 1.503906 -0.265625 1.644531 -0.300781 1.75 -0.375 C 1.863281 -0.445312 1.941406 -0.535156 1.984375 -0.640625 L 2.34375 -0.53125 C 2.195312 -0.144531 1.859375 0.046875 1.328125 0.046875 C 0.960938 0.046875 0.679688 -0.0625 0.484375 -0.28125 C 0.296875 -0.5 0.203125 -0.820312 0.203125 -1.25 C 0.203125 -1.65625 0.296875 -1.96875 0.484375 -2.1875 C 0.679688 -2.40625 0.957031 -2.515625 1.3125 -2.515625 C 2.039062 -2.515625 2.40625 -2.078125 2.40625 -1.203125 L 2.40625 -1.140625 Z M 1.984375 -1.46875 C 1.953125 -1.726562 1.878906 -1.914062 1.765625 -2.03125 C 1.660156 -2.144531 1.503906 -2.203125 1.296875 -2.203125 C 1.097656 -2.203125 0.941406 -2.132812 0.828125 -2 C 0.710938 -1.875 0.648438 -1.695312 0.640625 -1.46875 Z M 1.984375 -1.46875 "/></g></g></g><g fill="#0080ff" fill-opacity="1"><g transform="translate(236.161308, 189.567544)"><g><path d="M 2.1875 -0.6875 C 2.1875 -0.445312 2.097656 -0.265625 1.921875 -0.140625 C 1.742188 -0.015625 1.492188 0.046875 1.171875 0.046875 C 0.859375 0.046875 0.617188 0 0.453125 -0.09375 C 0.285156 -0.195312 0.175781 -0.359375 0.125 -0.578125 L 0.5 -0.65625 C 0.53125 -0.519531 0.597656 -0.421875 0.703125 -0.359375 C 0.816406 -0.296875 0.972656 -0.265625 1.171875 -0.265625 C 1.378906 -0.265625 1.53125 -0.296875 1.625 -0.359375 C 1.726562 -0.421875 1.78125 -0.519531 1.78125 -0.65625 C 1.78125 -0.75 1.742188 -0.828125 1.671875 -0.890625 C 1.609375 -0.953125 1.503906 -1 1.359375 -1.03125 L 1.0625 -1.109375 C 0.820312 -1.171875 0.648438 -1.226562 0.546875 -1.28125 C 0.453125 -1.34375 0.375 -1.414062 0.3125 -1.5 C 0.257812 -1.59375 0.234375 -1.695312 0.234375 -1.8125 C 0.234375 -2.039062 0.3125 -2.210938 0.46875 -2.328125 C 0.632812 -2.441406 0.867188 -2.5 1.171875 -2.5 C 1.453125 -2.5 1.671875 -2.453125 1.828125 -2.359375 C 1.992188 -2.265625 2.097656 -2.113281 2.140625 -1.90625 L 1.765625 -1.859375 C 1.742188 -1.960938 1.679688 -2.046875 1.578125 -2.109375 C 1.484375 -2.171875 1.347656 -2.203125 1.171875 -2.203125 C 0.984375 -2.203125 0.84375 -2.171875 0.75 -2.109375 C 0.664062 -2.054688 0.625 -1.972656 0.625 -1.859375 C 0.625 -1.785156 0.640625 -1.722656 0.671875 -1.671875 C 0.710938 -1.628906 0.769531 -1.59375 0.84375 -1.5625 C 0.914062 -1.53125 1.066406 -1.488281 1.296875 -1.4375 C 1.515625 -1.382812 1.671875 -1.332031 1.765625 -1.28125 C 1.867188 -1.238281 1.945312 -1.1875 2 -1.125 C 2.0625 -1.070312 2.109375 -1.007812 2.140625 -0.9375 C 2.171875 -0.863281 2.1875 -0.78125 2.1875 -0.6875 Z M 2.1875 -0.6875 "/></g></g></g><g fill="#0080ff" fill-opacity="1"><g transform="translate(239.046558, 189.567544)"><g><path d="M 2.1875 -0.6875 C 2.1875 -0.445312 2.097656 -0.265625 1.921875 -0.140625 C 1.742188 -0.015625 1.492188 0.046875 1.171875 0.046875 C 0.859375 0.046875 0.617188 0 0.453125 -0.09375 C 0.285156 -0.195312 0.175781 -0.359375 0.125 -0.578125 L 0.5 -0.65625 C 0.53125 -0.519531 0.597656 -0.421875 0.703125 -0.359375 C 0.816406 -0.296875 0.972656 -0.265625 1.171875 -0.265625 C 1.378906 -0.265625 1.53125 -0.296875 1.625 -0.359375 C 1.726562 -0.421875 1.78125 -0.519531 1.78125 -0.65625 C 1.78125 -0.75 1.742188 -0.828125 1.671875 -0.890625 C 1.609375 -0.953125 1.503906 -1 1.359375 -1.03125 L 1.0625 -1.109375 C 0.820312 -1.171875 0.648438 -1.226562 0.546875 -1.28125 C 0.453125 -1.34375 0.375 -1.414062 0.3125 -1.5 C 0.257812 -1.59375 0.234375 -1.695312 0.234375 -1.8125 C 0.234375 -2.039062 0.3125 -2.210938 0.46875 -2.328125 C 0.632812 -2.441406 0.867188 -2.5 1.171875 -2.5 C 1.453125 -2.5 1.671875 -2.453125 1.828125 -2.359375 C 1.992188 -2.265625 2.097656 -2.113281 2.140625 -1.90625 L 1.765625 -1.859375 C 1.742188 -1.960938 1.679688 -2.046875 1.578125 -2.109375 C 1.484375 -2.171875 1.347656 -2.203125 1.171875 -2.203125 C 0.984375 -2.203125 0.84375 -2.171875 0.75 -2.109375 C 0.664062 -2.054688 0.625 -1.972656 0.625 -1.859375 C 0.625 -1.785156 0.640625 -1.722656 0.671875 -1.671875 C 0.710938 -1.628906 0.769531 -1.59375 0.84375 -1.5625 C 0.914062 -1.53125 1.066406 -1.488281 1.296875 -1.4375 C 1.515625 -1.382812 1.671875 -1.332031 1.765625 -1.28125 C 1.867188 -1.238281 1.945312 -1.1875 2 -1.125 C 2.0625 -1.070312 2.109375 -1.007812 2.140625 -0.9375 C 2.171875 -0.863281 2.1875 -0.78125 2.1875 -0.6875 Z M 2.1875 -0.6875 "/></g></g></g></svg>