<?xml version="1.0" encoding="UTF-8"?>
<svg xmlns="http://www.w3.org/2000/svg" width="512" height="512" viewBox="0 0 512 512">
  <defs>
    <radialGradient id="centerGlow">
      <stop offset="0%" style="stop-color:#FFFFFF;stop-opacity:0.9" />
      <stop offset="40%" style="stop-color:#0080FF;stop-opacity:1" />
      <stop offset="100%" style="stop-color:#041227;stop-opacity:1" />
    </radialGradient>
    
    <filter id="nodeGlow">
      <feGaussianBlur stdDeviation="6" result="coloredBlur"/>
      <feMerge>
        <feMergeNode in="coloredBlur"/>
        <feMergeNode in="SourceGraphic"/>
      </feMerge>
    </filter>
  </defs>
  
  <!-- Background -->
  <rect width="512" height="512" fill="#041227"/>
  
  <!-- Connection lines -->
  <line x1="256" y1="70" x2="256" y2="442" stroke="#31769e" stroke-width="2" opacity="0.3"/>
  <line x1="70" y1="256" x2="442" y2="256" stroke="#31769e" stroke-width="2" opacity="0.3"/>
  <line x1="130" y1="130" x2="382" y2="382" stroke="#31769e" stroke-width="2" opacity="0.3"/>
  <line x1="382" y1="130" x2="130" y2="382" stroke="#31769e" stroke-width="2" opacity="0.3"/>
  
  <!-- Launch Tier Nodes (outer ring - 8 nodes) -->
  <circle cx="256" cy="70" r="10" fill="#9db5d6" opacity="0.9"/>
  <circle cx="382" cy="130" r="10" fill="#9db5d6" opacity="0.9"/>
  <circle cx="442" cy="256" r="10" fill="#9db5d6" opacity="0.9"/>
  <circle cx="382" cy="382" r="10" fill="#9db5d6" opacity="0.9"/>
  <circle cx="256" cy="442" r="10" fill="#9db5d6" opacity="0.9"/>
  <circle cx="130" cy="382" r="10" fill="#9db5d6" opacity="0.9"/>
  <circle cx="70" cy="256" r="10" fill="#9db5d6" opacity="0.9"/>
  <circle cx="130" cy="130" r="10" fill="#9db5d6" opacity="0.9"/>
  
  <!-- Elevate Tier Nodes (middle ring - 4 nodes) -->
  <circle cx="256" cy="140" r="18" fill="#31769e"/>
  <circle cx="372" cy="256" r="18" fill="#31769e"/>
  <circle cx="256" cy="372" r="18" fill="#31769e"/>
  <circle cx="140" cy="256" r="18" fill="#31769e"/>
  
  <!-- Command Tier Node (center) -->
  <circle cx="256" cy="256" r="70" fill="url(#centerGlow)" filter="url(#nodeGlow)"/>
  <circle cx="256" cy="256" r="40" fill="#0080FF" opacity="0.6"/>
  <circle cx="256" cy="256" r="25" fill="#FFFFFF" opacity="0.4"/>
</svg>